<svg width="352" height="315" viewBox="0 0 352 315" fill="none" xmlns="http://www.w3.org/2000/svg">
<path d="M351 157.5C351 243.831 272.757 314 176 314C79.2428 314 1 243.831 1 157.5C1 71.169 79.2428 1 176 1C272.757 1 351 71.169 351 157.5Z" stroke="black" stroke-width="2"/>
<path d="M236.689 29.4923C239.995 25.2214 246.681 27.6158 246.697 33.0764L246.834 79.6555C246.846 83.6398 243.029 86.4411 239.372 85.1317L211.033 74.9833C207.377 73.6739 206.074 69.0392 208.486 65.923L236.689 29.4923Z" fill="black"/>
<path d="M115.292 26.1895C111.985 21.9187 105.299 24.3131 105.283 29.7736L105.146 76.3527C105.135 80.3371 108.952 83.1384 112.608 81.829L140.947 71.6806C144.604 70.3712 145.906 65.7365 143.494 62.6202L115.292 26.1895Z" fill="black"/>
<path d="M257.634 118.727C257.634 157.488 220.277 188.91 174.195 188.91C128.113 188.91 90.7559 157.488 90.7559 118.727C90.7559 79.9654 128.113 48.5431 174.195 48.5431C220.277 48.5431 257.634 79.9654 257.634 118.727Z" fill="black"/>
<path d="M257.634 118.727C257.634 157.488 220.277 188.91 174.195 188.91C128.113 188.91 90.7559 157.488 90.7559 118.727C90.7559 79.9654 128.113 48.5431 174.195 48.5431C220.277 48.5431 257.634 79.9654 257.634 118.727Z" fill="black"/>
<path d="M231.158 169.507C231.158 180.223 205.744 188.91 174.395 188.91C143.046 188.91 117.633 180.223 117.633 169.507C117.633 158.79 143.046 150.103 174.395 150.103C205.744 150.103 231.158 158.79 231.158 169.507Z" fill="white"/>
<path d="M231.158 169.507C231.158 180.223 205.744 188.91 174.395 188.91C143.046 188.91 117.633 180.223 117.633 169.507C117.633 158.79 143.046 150.103 174.395 150.103C205.744 150.103 231.158 158.79 231.158 169.507Z" fill="#FFFBF2"/>
<path d="M205.886 150.103C205.886 155.575 198.881 160.011 190.241 160.011C181.6 160.011 174.596 155.575 174.596 150.103C174.596 144.631 181.6 140.195 190.241 140.195C198.881 140.195 205.886 144.631 205.886 150.103Z" fill="black"/>
<path d="M174.596 150.103C174.596 155.575 167.592 160.011 158.951 160.011C150.311 160.011 143.306 155.575 143.306 150.103C143.306 144.631 150.311 140.195 158.951 140.195C167.592 140.195 174.596 144.631 174.596 150.103Z" fill="black"/>
<path d="M232.361 121.617L283.708 106.754M232.361 121.617H289.726M232.361 121.617L287.583 137.601" stroke="black" stroke-width="1.5"/>
<path d="M119.639 121.617L68.2917 106.754M119.639 121.617H62.2744M119.639 121.617L64.4169 137.601" stroke="black" stroke-width="1.5"/>
<g filter="url(#filter0_d_36_202)">
<path d="M64.1228 224.69C63.1913 224.349 62.5059 223.841 62.0666 223.166C61.6508 222.47 61.6582 221.656 62.0887 220.726C62.2458 220.391 62.4599 220.061 62.7308 219.737C63.0253 219.392 63.3381 219.068 63.6691 218.766C64.0001 218.464 64.2407 218.341 64.391 218.396C64.5713 218.462 64.5668 218.581 64.3777 218.754C63.2664 219.767 62.7726 220.659 62.8963 221.43C63.05 222.212 63.6526 222.795 64.7043 223.18C65.7559 223.566 66.9989 223.719 68.4333 223.64C69.8977 223.572 71.417 223.358 72.9913 222.998C75.5556 222.426 77.9214 221.766 80.0887 221.019C82.2797 220.25 84.4041 219.426 86.4621 218.548C88.5737 217.659 90.7326 216.727 92.9389 215.752C94.3008 215.163 95.6766 214.715 97.0661 214.408C98.4857 214.112 99.8545 214.054 101.173 214.235L101.253 214.219L98.7743 213.311C97.7227 212.925 96.5755 212.55 95.3327 212.186C94.09 211.821 92.8696 211.571 91.6717 211.434C90.5038 211.308 89.4731 211.384 88.5796 211.661C88.0018 211.842 87.5119 212.116 87.11 212.483C86.7081 212.85 86.4532 213.255 86.3453 213.699C86.2374 214.143 86.3111 214.518 86.5662 214.823C86.579 214.888 86.5736 214.931 86.55 214.953C86.5027 214.996 86.3685 215.022 86.1473 215.032C85.9798 215.031 85.8328 214.992 85.7062 214.916C85.584 214.72 85.4727 214.437 85.3722 214.068C85.2954 213.677 85.2604 213.286 85.2673 212.896C85.3042 212.517 85.384 212.213 85.5067 211.986C85.6702 211.683 85.8939 211.403 86.1776 211.144C86.745 210.626 87.4615 210.299 88.3269 210.163C89.2224 210.038 90.1854 210.043 91.2158 210.179C92.2463 210.314 93.2777 210.526 94.3102 210.814C95.3963 211.091 96.39 211.394 97.2914 211.725C98.2465 212.044 99.0546 212.325 99.7156 212.567L104.583 214.351C104.643 214.373 104.662 214.395 104.638 214.416C104.567 214.481 104.355 214.539 104.003 214.592C103.705 214.633 103.525 214.643 103.465 214.621C102.596 214.454 101.721 214.541 100.84 214.884C99.9831 215.204 99.014 215.877 97.9328 216.902C97.9328 216.902 97.6727 217.139 97.1526 217.613C96.6625 218.099 96.0187 218.724 95.2212 219.49C94.4237 220.256 93.5672 221.075 92.6515 221.949C91.7358 222.822 90.8556 223.664 90.0108 224.472C89.1661 225.281 88.4632 225.961 87.9021 226.511L87.6893 226.705L116.309 220.596C118.128 220.205 119.802 219.927 121.331 219.761C122.914 219.586 124.195 219.723 125.176 220.173C125.206 220.184 125.209 220.2 125.185 220.221C125.216 220.233 125.231 220.238 125.231 220.238C125.16 220.303 125.017 220.356 124.802 220.398C124.587 220.441 124.393 220.445 124.219 220.411C123.461 220.104 122.519 220.061 121.391 220.282C120.264 220.504 119.087 220.828 117.86 221.256C117.235 221.48 116.262 221.849 114.941 222.362C113.644 222.854 112.129 223.448 110.398 224.144C108.697 224.85 106.921 225.605 105.072 226.409C103.222 227.212 101.441 228.01 99.729 228.804C98.0469 229.608 96.5645 230.365 95.2818 231.074C94.0228 231.761 93.1096 232.363 92.5422 232.881C91.8802 233.485 91.8346 233.891 92.4055 234.1C92.6459 234.188 92.9485 234.239 93.3135 234.252C93.8224 234.287 94.4354 234.285 95.1526 234.245C95.8697 234.206 96.5773 234.117 97.2753 233.98C98.6476 233.727 99.9416 233.431 101.157 233.09C102.397 232.728 103.124 232.526 103.338 232.484C103.523 232.431 103.645 232.415 103.706 232.437C103.826 232.481 103.815 232.568 103.673 232.697C103.531 232.826 103.341 232.923 103.103 232.987C102.626 233.114 101.806 233.343 100.644 233.673C99.5061 233.981 98.2508 234.262 96.8785 234.515C95.5363 234.779 94.2758 234.891 93.0971 234.852C92.7321 234.84 92.3757 234.8 92.0279 234.733C91.6565 234.687 91.3206 234.61 91.0201 234.5C90.3591 234.257 89.9119 233.897 89.6784 233.419C89.4986 232.929 89.787 232.34 90.5436 231.65C91.2765 230.981 92.3143 230.304 93.6571 229.617C95.0535 228.919 96.4596 228.271 97.8752 227.671C99.3445 227.061 100.567 226.542 101.542 226.113C102.571 225.674 103.883 225.112 105.477 224.426C107.07 223.741 108.766 223.077 110.564 222.436L86.8027 227.514C86.5835 227.675 86.2892 227.809 85.9198 227.916C85.574 228 85.1467 228.025 84.6379 227.99C84.3566 227.978 83.882 228.046 83.2141 228.194C82.5462 228.342 82.093 228.448 81.8546 228.512C81.831 228.533 81.7741 228.528 81.6839 228.495C81.5938 228.462 81.5273 228.407 81.4844 228.331C81.4416 228.255 81.447 228.211 81.5007 228.201C83.0621 227.775 84.5435 226.943 85.9449 225.703L86.8411 224.943C87.8942 224.06 88.9796 223.127 90.0972 222.147C91.2385 221.144 92.282 220.211 93.2278 219.349C94.2272 218.476 95.0224 217.77 95.6135 217.231C96.2282 216.67 96.5356 216.39 96.5356 216.39C97.103 215.872 97.7047 215.458 98.3406 215.147C98.9765 214.836 99.5984 214.595 100.206 214.425C99.3881 214.518 98.5258 214.671 97.6195 214.883C96.7132 215.095 95.8347 215.377 94.984 215.731C93.8004 216.234 92.3438 216.909 90.6144 217.757C88.885 218.604 86.9945 219.483 84.943 220.394C82.9215 221.316 80.8335 222.183 78.679 222.996C76.5782 223.798 74.5377 224.41 72.5576 224.834C71.168 225.141 69.6627 225.284 68.0417 225.265C66.4507 225.256 65.1444 225.065 64.1228 224.69Z" fill="black"/>
<path d="M101.39 239.631C101.08 239.555 100.853 239.438 100.711 239.282C100.57 239.125 100.603 238.905 100.811 238.621C101.076 238.26 101.488 237.874 102.046 237.463C102.605 237.052 103.185 236.661 103.786 236.291C104.407 235.896 104.93 235.583 105.356 235.352C103.567 236.04 101.77 236.665 99.9645 237.226C99.0711 237.494 98.1344 237.721 97.1545 237.907C96.1746 238.093 95.2806 238.087 94.4726 237.889C94.1618 237.812 94.001 237.682 93.9903 237.496C93.9986 237.285 94.0879 237.064 94.2583 236.831C94.3529 236.702 94.4347 236.616 94.5037 236.572C95.3975 235.604 96.5528 234.654 97.9696 233.723C99.3864 232.792 100.896 231.96 102.498 231.227C104.099 230.493 105.584 229.944 106.952 229.579C108.501 229.168 109.913 229.118 111.187 229.431L116.548 230.746C116.703 230.784 116.743 230.854 116.667 230.957C116.516 231.164 116.3 231.233 116.021 231.164C115.71 231.088 115.276 231.179 114.719 231.439C114.181 231.672 113.759 231.873 113.452 232.041C113.026 232.271 112.334 232.665 111.375 233.221C110.417 233.778 109.396 234.395 108.311 235.072C107.277 235.732 106.343 236.355 105.509 236.942C104.675 237.529 104.144 237.977 103.917 238.287C103.652 238.648 103.737 238.882 104.172 238.989C104.638 239.103 105.299 239.052 106.155 238.836C107.01 238.619 107.923 238.326 108.892 237.954C109.911 237.565 110.858 237.174 111.734 236.78C112.66 236.367 113.392 236.045 113.93 235.811C114.003 236.012 113.827 236.227 113.401 236.458C113.025 236.67 112.703 236.834 112.434 236.951C111.32 237.469 110.094 237.991 108.756 238.515C107.436 239.013 106.115 239.389 104.792 239.643C103.519 239.879 102.385 239.875 101.39 239.631ZM97.3496 237.042C97.7225 237.133 98.3963 237.04 99.3708 236.761C100.395 236.464 101.542 236.076 102.811 235.596C104.1 235.09 105.36 234.547 106.593 233.966C107.845 233.36 108.915 232.801 109.805 232.288C110.744 231.757 111.337 231.324 111.583 230.989C111.792 230.705 111.825 230.485 111.683 230.329C111.572 230.18 111.362 230.067 111.051 229.991C110.553 229.869 109.896 229.89 109.078 230.055C108.311 230.202 107.652 230.375 107.102 230.575C106.52 230.767 105.738 231.108 104.756 231.598C103.823 232.069 102.843 232.605 101.815 233.205C100.788 233.806 99.8572 234.399 99.0231 234.986C98.1889 235.573 97.6204 236.073 97.3174 236.486C97.0902 236.795 97.1009 236.981 97.3496 237.042Z" fill="black"/>
<path d="M117.439 244.837C117.125 244.779 116.849 244.651 116.611 244.453C116.295 244.209 116.088 243.8 115.989 243.227C115.89 242.653 115.87 242.062 115.927 241.456C115.985 240.849 116.068 240.355 116.175 239.974C114.922 240.483 113.803 241.002 112.817 241.529C111.832 242.057 110.729 242.61 109.508 243.186C109.367 243.253 109.108 243.251 108.73 243.182C108.51 243.141 108.305 243.072 108.116 242.976C107.927 242.879 107.863 242.774 107.925 242.662C108.002 242.522 108.166 242.414 108.417 242.337C109.952 241.756 111.284 241.261 112.411 240.852C113.555 240.416 114.878 239.904 116.382 239.317C116.428 239.172 116.535 238.852 116.704 238.358C116.873 237.865 117.049 237.327 117.233 236.743C117.448 236.166 117.64 235.661 117.81 235.229C117.995 234.77 118.11 234.498 118.157 234.414C118.405 234.089 118.773 233.833 119.258 233.645C119.759 233.429 120.269 233.292 120.787 233.233C121.351 233.152 121.807 233.144 122.153 233.208C122.594 233.289 122.76 233.428 122.651 233.624C122.589 233.736 122.433 233.769 122.181 233.722C121.772 233.647 121.435 233.754 121.17 234.045C120.905 234.335 120.703 234.576 120.563 234.766C120.439 234.928 120.314 235.09 120.19 235.253C120.097 235.421 120.004 235.589 119.911 235.757C119.679 236.177 119.478 236.603 119.309 237.034C119.14 237.466 118.994 237.886 118.871 238.296C119.091 238.213 119.529 238.047 120.187 237.798C120.845 237.549 121.612 237.259 122.489 236.927C123.366 236.596 124.244 236.264 125.121 235.932C125.998 235.6 126.742 235.321 127.353 235.094C127.964 234.868 128.332 234.735 128.457 234.697C128.959 234.542 129.469 234.529 129.988 234.656C130.555 234.76 131.043 234.85 131.452 234.926C131.546 234.943 131.547 235.036 131.454 235.204C131.315 235.456 131.182 235.571 131.056 235.547C130.6 235.494 130.09 235.508 129.525 235.588C129.007 235.647 128.591 235.709 128.277 235.775C127.399 235.921 126.364 236.193 125.173 236.59C124.029 236.965 122.886 237.371 121.742 237.808C120.615 238.217 119.604 238.601 118.712 238.961C118.635 239.225 118.521 239.682 118.369 240.333C118.249 240.99 118.191 241.627 118.196 242.245C118.171 243.043 118.426 243.492 118.961 243.59C119.402 243.672 119.95 243.526 120.607 243.154C121.264 242.781 121.889 242.341 122.482 241.834C123.122 241.304 123.597 240.851 123.908 240.477C124.064 240.32 124.189 240.251 124.284 240.268C124.504 240.309 124.497 240.478 124.264 240.774C123.751 241.389 123.096 242.04 122.3 242.726C121.505 243.412 120.677 243.969 119.816 244.397C118.955 244.824 118.163 244.971 117.439 244.837Z" fill="black"/>
<path d="M130.628 248.77C130.183 248.72 129.852 248.526 129.635 248.187C129.418 247.848 129.436 247.299 129.688 246.54C129.911 245.872 130.221 245.088 130.62 244.187C131.05 243.291 131.533 242.384 132.069 241.467C132.615 240.521 133.152 239.699 133.681 239.002C132.888 239.701 132.021 240.423 131.08 241.169C130.15 241.884 129.371 242.49 128.744 242.987C128.608 243.098 128.508 243.15 128.444 243.142C128.381 243.135 128.374 243.056 128.425 242.904C128.506 242.661 128.661 242.442 128.891 242.247C129.852 241.441 130.932 240.522 132.133 239.491C133.366 238.463 134.436 237.527 135.343 236.684C135.713 236.662 136.157 236.617 136.675 236.548C137.224 236.483 137.645 236.357 137.939 236.169C138.128 236.096 138.238 236.061 138.27 236.064C138.366 236.075 138.393 236.141 138.353 236.263C138.322 236.354 138.239 236.455 138.104 236.565C137.686 236.928 137.161 237.515 136.528 238.327C135.905 239.108 135.263 239.996 134.601 240.993C133.95 241.96 133.351 242.917 132.805 243.864C132.291 244.814 131.928 245.608 131.716 246.246C131.554 246.731 131.522 247.074 131.621 247.274C131.751 247.477 131.927 247.592 132.15 247.616C132.595 247.666 133.122 247.52 133.73 247.178C134.371 246.84 135.025 246.409 135.694 245.885C136.395 245.365 137.027 244.853 137.591 244.349C138.155 243.844 138.582 243.451 138.874 243.169C139.834 242.268 140.786 241.288 141.733 240.228C142.721 239.141 143.533 238.287 144.169 237.665C144.539 237.643 144.983 237.598 145.5 237.53C146.049 237.465 146.487 237.34 146.812 237.156C146.938 237.076 147.032 237.039 147.096 237.046C147.191 237.057 147.219 237.123 147.178 237.244C147.18 237.339 147.113 237.441 146.977 237.552C146.559 237.915 146.055 238.489 145.464 239.273C144.873 240.058 144.252 240.933 143.601 241.9C142.991 242.839 142.429 243.785 141.915 244.735C141.411 245.655 141.048 246.449 140.825 247.117C140.522 248.028 140.72 248.522 141.42 248.6C141.897 248.653 142.477 248.544 143.161 248.274C143.877 248.007 144.486 247.713 144.989 247.391C146.424 246.449 147.679 245.502 148.754 244.551C149.829 243.6 150.843 242.485 151.797 241.205C152.139 240.771 152.398 240.391 152.572 240.064C152.757 239.706 152.9 239.376 153.001 239.072C153.143 238.647 153.174 238.304 153.096 238.044C153.06 237.756 152.967 237.589 152.818 237.541C152.679 237.462 152.625 237.377 152.656 237.286C152.676 237.226 152.775 237.174 152.955 237.131C153.144 237.057 153.329 237.046 153.51 237.098C153.978 237.276 154.332 237.552 154.57 237.924C154.851 238.271 154.89 238.747 154.688 239.354C154.527 239.84 154.243 240.344 153.839 240.866C153.02 241.94 151.979 243.036 150.716 244.155C149.495 245.247 148.188 246.251 146.795 247.167C145.402 248.082 144.027 248.795 142.669 249.306C142.185 249.472 141.695 249.607 141.199 249.709C140.704 249.811 140.249 249.839 139.836 249.793C139.327 249.737 138.932 249.536 138.651 249.189C138.403 248.847 138.405 248.296 138.657 247.537C138.92 246.748 139.313 245.815 139.835 244.74C140.39 243.668 140.982 242.632 141.612 241.631C141.278 241.941 140.934 242.28 140.58 242.65C140.268 242.993 139.919 243.348 139.534 243.714C138.375 244.719 137.204 245.659 136.022 246.536C134.872 247.415 133.939 247.988 133.224 248.255C132.771 248.425 132.313 248.563 131.849 248.669C131.385 248.775 130.978 248.808 130.628 248.77Z" fill="black"/>
<path d="M156.322 252.175C155.012 252.116 154.135 251.821 153.692 251.29C153.25 250.76 153.078 250.13 153.176 249.401C153.301 248.481 153.674 247.509 154.295 246.484C154.948 245.461 155.548 244.595 156.094 243.885C156.709 243.148 157.504 242.386 158.478 241.6C159.453 240.815 160.491 240.16 161.591 239.636C162.691 239.111 163.721 238.871 164.68 238.914C165.511 238.952 166.059 239.184 166.322 239.611C166.591 240.006 166.688 240.473 166.615 241.012C166.482 241.995 166.069 242.79 165.375 243.396C164.714 244.004 163.924 244.495 163.005 244.868C162.09 245.21 161.216 245.489 160.383 245.707C159.886 245.812 159.309 245.913 158.653 246.011C157.996 246.109 157.38 246.145 156.805 246.119C156.504 246.68 156.253 247.227 156.052 247.76C155.851 248.293 155.721 248.782 155.661 249.226C155.588 249.765 155.655 250.215 155.864 250.575C156.104 250.937 156.544 251.132 157.183 251.161C157.439 251.173 157.747 251.155 158.107 251.107C158.468 251.06 158.864 250.982 159.297 250.874C160.299 250.6 161.311 250.136 162.332 249.48C163.354 248.824 164.302 248.117 165.176 247.359C166.087 246.571 166.787 245.917 167.276 245.397C167.359 245.496 167.391 245.609 167.374 245.736C167.353 245.895 167.207 246.143 166.936 246.482C166.176 247.341 165.22 248.223 164.068 249.128C162.917 250.033 161.672 250.79 160.335 251.4C159.003 251.977 157.665 252.236 156.322 252.175ZM157.317 245.185C157.729 245.236 158.192 245.257 158.708 245.248C159.26 245.209 159.803 245.122 160.336 244.987C161.698 244.665 162.722 244.106 163.409 243.307C164.133 242.479 164.54 241.731 164.63 241.065C164.681 240.685 164.644 240.364 164.519 240.103C164.393 239.842 164.155 239.704 163.803 239.688C162.876 239.646 161.998 239.957 161.168 240.622C160.343 241.254 159.598 242.002 158.934 242.865C158.271 243.729 157.732 244.502 157.317 245.185Z" fill="black"/>
<path d="M171.906 252.522C170.946 252.52 170.292 252.294 169.943 251.846C169.595 251.365 169.423 250.788 169.428 250.116C169.434 249.22 169.634 248.261 170.025 247.238C170.448 246.215 170.79 245.416 171.051 244.84C170.631 245.287 170.228 245.718 169.841 246.133C169.454 246.548 169.18 246.852 169.018 247.043C168.921 247.171 168.841 247.235 168.777 247.235C168.713 247.235 168.682 247.155 168.683 246.995C168.685 246.739 168.766 246.499 168.928 246.275C169.38 245.7 169.897 245.094 170.477 244.455C171.058 243.816 171.623 243.146 172.172 242.443C172.821 241.261 173.535 239.886 174.314 238.32C175.126 236.722 175.954 235.092 176.798 233.43C177.674 231.737 178.518 230.187 179.328 228.781C180.171 227.343 180.915 226.193 181.561 225.33C182.107 225.107 182.621 224.821 183.104 224.47C183.618 224.119 184.116 223.8 184.599 223.514C185.113 223.195 185.642 223.036 186.186 223.037C186.538 223.038 186.793 223.135 186.952 223.327C187.143 223.52 187.269 223.744 187.331 224C187.362 224.096 187.377 224.272 187.375 224.528C187.37 225.264 187.107 226.16 186.588 227.214C186.1 228.269 185.516 229.308 184.837 230.33C184.19 231.321 183.624 232.135 183.139 232.774C181.846 234.563 180.522 236.192 179.167 237.66C177.813 239.097 176.588 240.31 175.492 241.299C174.429 242.257 173.656 242.959 173.173 243.406C172.946 243.821 172.67 244.38 172.345 245.083C172.052 245.755 171.791 246.474 171.561 247.242C171.332 247.977 171.215 248.665 171.21 249.305C171.206 249.849 171.331 250.313 171.584 250.698C171.837 251.05 172.268 251.227 172.876 251.229C172.972 251.229 173.068 251.229 173.164 251.229C173.26 251.23 173.372 251.214 173.5 251.182C174.045 251.088 174.639 250.785 175.283 250.275C175.927 249.764 176.571 249.174 177.216 248.503C177.861 247.833 178.441 247.194 178.958 246.588C179.184 246.332 179.393 246.093 179.587 245.869C179.781 245.614 179.91 245.438 179.975 245.342C180.197 245.567 180.179 245.855 179.921 246.206C179.694 246.525 179.5 246.797 179.339 247.021C179.113 247.308 178.79 247.707 178.37 248.218C177.95 248.697 177.467 249.224 176.918 249.799C176.306 250.405 175.55 251.011 174.649 251.617C173.749 252.223 172.834 252.525 171.906 252.522ZM174.003 241.488C175.001 240.658 176.258 239.477 177.773 237.945C179.32 236.381 180.838 234.496 182.326 232.292C182.488 232.036 182.747 231.605 183.104 230.998C183.492 230.391 183.881 229.704 184.271 228.937C184.693 228.138 185.05 227.371 185.344 226.635C185.637 225.868 185.786 225.212 185.79 224.668C185.794 224.157 185.652 223.9 185.364 223.899C185.012 223.899 184.546 224.201 183.965 224.808C183.288 225.51 182.512 226.548 181.638 227.922C180.796 229.264 179.905 230.766 178.965 232.428C178.025 234.089 177.117 235.719 176.242 237.317C175.398 238.915 174.652 240.305 174.003 241.488Z" fill="black"/>
<path d="M185.516 252.129C184.557 252.166 183.876 251.968 183.474 251.536C183.068 251.073 182.827 250.507 182.752 249.839C182.651 248.949 182.734 247.988 183.003 246.956C183.303 245.923 183.549 245.115 183.74 244.533C183.374 244.994 183.023 245.438 182.686 245.866C182.35 246.294 182.112 246.606 181.974 246.803C181.892 246.934 181.82 247.001 181.756 247.003C181.692 247.005 181.651 246.927 181.633 246.768C181.604 246.514 181.657 246.272 181.791 246.044C182.174 245.454 182.617 244.831 183.121 244.173C183.624 243.515 184.108 242.826 184.572 242.106C185.078 240.906 185.627 239.512 186.218 237.925C186.837 236.305 187.468 234.652 188.112 232.967C188.784 231.249 189.441 229.676 190.082 228.246C190.751 226.784 191.356 225.611 191.899 224.729C192.417 224.486 192.896 224.18 193.336 223.812C193.808 223.443 194.268 223.106 194.715 222.802C195.19 222.464 195.7 222.285 196.244 222.265C196.595 222.252 196.862 222.337 197.044 222.522C197.257 222.705 197.41 222.923 197.503 223.175C197.546 223.269 197.582 223.444 197.61 223.698C197.693 224.429 197.539 225.329 197.146 226.398C196.785 227.465 196.327 228.521 195.771 229.563C195.243 230.573 194.775 231.405 194.368 232.06C193.291 233.889 192.164 235.56 190.986 237.073C189.806 238.555 188.728 239.809 187.752 240.836C186.805 241.83 186.117 242.559 185.688 243.022C185.511 243.444 185.302 244.011 185.062 244.722C184.85 245.401 184.675 246.126 184.538 246.898C184.397 247.637 184.362 248.325 184.434 248.961C184.496 249.502 184.676 249.958 184.975 250.33C185.271 250.67 185.722 250.828 186.33 250.805C186.426 250.802 186.521 250.798 186.617 250.794C186.713 250.791 186.823 250.771 186.948 250.734C187.481 250.618 188.038 250.294 188.62 249.761C189.202 249.228 189.774 248.615 190.338 247.923C190.902 247.231 191.405 246.573 191.849 245.95C192.044 245.687 192.224 245.441 192.391 245.211C192.554 244.949 192.662 244.77 192.715 244.672C192.964 244.886 192.981 245.173 192.765 245.532C192.577 245.858 192.416 246.136 192.281 246.365C192.09 246.659 191.815 247.069 191.457 247.593C191.095 248.086 190.675 248.629 190.196 249.222C189.657 249.849 188.974 250.482 188.148 251.12C187.321 251.758 186.444 252.094 185.516 252.129ZM186.287 241.083C187.184 240.219 188.298 238.995 189.628 237.412C190.986 235.796 192.276 233.863 193.498 231.613C193.629 231.353 193.837 230.914 194.12 230.297C194.435 229.678 194.741 228.98 195.038 228.202C195.364 227.392 195.629 226.615 195.834 225.873C196.035 225.099 196.105 224.442 196.044 223.901C195.986 223.392 195.813 223.143 195.526 223.154C195.174 223.168 194.744 223.487 194.237 224.113C193.645 224.838 192.995 225.901 192.287 227.301C191.607 228.668 190.897 230.195 190.157 231.884C189.417 233.572 188.706 235.228 188.023 236.85C187.372 238.472 186.793 239.883 186.287 241.083Z" fill="black"/>
<path d="M198.058 229.066C197.894 229.205 197.74 229.312 197.594 229.386C197.48 229.458 197.424 229.494 197.424 229.494L197.435 229.112C197.446 229.016 197.445 228.937 197.431 228.875C197.449 228.81 197.539 228.708 197.703 228.568C198.147 228.091 198.495 227.541 198.745 226.919C199.026 226.295 199.158 225.65 199.138 224.984C199.111 224.574 198.951 224.221 198.658 223.925C198.364 223.63 198.003 223.466 197.574 223.435L197.65 222.905C197.796 222.831 197.998 222.72 198.258 222.574C198.51 222.396 198.689 222.256 198.796 222.153C198.902 222.049 199.006 221.931 199.105 221.796C199.198 221.63 199.296 221.56 199.398 221.584C200.089 221.627 200.516 222.008 200.676 222.726C200.704 222.851 200.716 222.977 200.713 223.104C200.734 223.198 200.746 223.324 200.749 223.483C200.745 224.626 200.478 225.678 199.947 226.638C199.441 227.565 198.811 228.374 198.058 229.066Z" fill="black"/>
<path d="M209.686 249.809C209.114 249.874 208.484 249.867 207.797 249.788C207.109 249.709 206.455 249.531 205.832 249.256C205.232 248.947 204.749 248.498 204.384 247.911C204.321 247.823 204.259 247.689 204.197 247.507C204.052 247.083 203.988 246.603 204.003 246.066C204.051 245.526 204.197 245.131 204.443 244.883C204.55 244.808 204.645 244.797 204.729 244.851C204.845 244.9 204.882 244.959 204.839 245.027C204.838 245.121 204.831 245.248 204.819 245.407C204.797 245.535 204.796 245.677 204.815 245.832C204.988 246.63 205.4 247.307 206.052 247.862C206.325 248.083 206.625 248.285 206.951 248.468C207.31 248.648 207.642 248.799 207.948 248.921C208.211 249.017 208.513 249.077 208.851 249.102C209.179 249.096 209.503 249.075 209.821 249.039C210.329 248.981 210.801 248.864 211.237 248.689C211.673 248.513 211.956 248.276 212.085 247.979C212.334 247.447 212.355 246.878 212.148 246.272C211.994 245.818 211.702 245.348 211.272 244.862C210.842 244.375 210.259 243.875 209.523 243.361C209.049 243.038 208.581 242.682 208.119 242.294C207.657 241.906 207.296 241.475 207.035 241.001C206.972 240.914 206.91 240.827 206.847 240.739C206.816 240.648 206.785 240.558 206.754 240.467C206.537 241.089 206.293 241.683 206.023 242.249C205.775 242.781 205.554 243.246 205.359 243.646C205.294 243.842 205.214 243.946 205.118 243.957C205.055 243.964 205.002 243.907 204.961 243.786C204.868 243.513 204.898 243.211 205.049 242.879C205.21 242.577 205.383 242.212 205.567 241.782C205.741 241.321 205.881 240.959 205.99 240.695C206.272 239.876 206.469 239.24 206.579 238.787C206.71 238.301 206.873 237.857 207.067 237.458C207.283 237.024 207.604 236.657 208.03 236.357C208.488 236.053 209.003 235.869 209.576 235.803C210.243 235.727 210.884 235.765 211.496 235.915C212.131 236.032 212.598 236.482 212.897 237.266C213.021 237.63 213.071 238.018 213.046 238.429C213.042 238.807 213.018 239.172 212.972 239.523C212.939 239.716 212.842 239.869 212.682 239.981C212.544 240.06 212.454 240.039 212.413 239.917C212.372 239.796 212.341 239.658 212.321 239.503C212.302 239.348 212.271 239.21 212.23 239.089C212.054 238.574 211.804 238.13 211.48 237.758C211.176 237.352 210.835 237.076 210.455 236.931C210.065 236.755 209.695 236.687 209.345 236.726C208.836 236.784 208.411 237.037 208.068 237.485C207.714 237.903 207.641 238.415 207.847 239.021C207.868 239.081 207.894 239.157 207.925 239.248C207.955 239.339 207.997 239.413 208.05 239.47C208.342 239.94 208.909 240.442 209.751 240.975C210.593 241.509 211.266 241.983 211.771 242.398C212.643 243.117 213.218 243.885 213.497 244.703C213.775 245.521 213.779 246.307 213.507 247.062C213.257 247.782 212.786 248.387 212.093 248.874C211.443 249.389 210.64 249.7 209.686 249.809Z" fill="black"/>
<path d="M239.415 241.255C239.198 241.312 238.988 241.306 238.785 241.238C238.602 241.195 238.553 241.132 238.637 241.049C239.239 240.77 239.669 240.414 239.927 239.982C240.165 239.525 240.25 239.017 240.184 238.457C240.142 237.406 240.084 236.359 240.011 235.316C239.918 234.248 239.809 233.184 239.685 232.123L238.891 224.274C238.792 223.055 238.63 221.899 238.404 220.805C238.21 219.703 238.099 218.897 238.072 218.388C238.032 218.004 238.176 217.617 238.504 217.227C238.844 216.804 239.217 216.448 239.625 216.159C239.439 216.208 239.253 216.257 239.068 216.305C238.862 216.329 238.651 216.369 238.434 216.426C237.475 216.678 236.462 217.005 235.396 217.406C234.341 217.775 233.342 218.189 232.397 218.65C231.483 219.102 230.742 219.585 230.175 220.099C229.608 220.612 229.353 221.119 229.41 221.62C229.465 221.879 229.534 222.134 229.619 222.384C229.705 222.635 229.836 222.874 230.014 223.1C230.469 223.679 231.043 224.029 231.736 224.15C231.767 224.142 231.802 224.163 231.842 224.213C231.881 224.264 231.859 224.33 231.775 224.413C231.722 224.488 231.639 224.525 231.526 224.524C231.148 224.471 230.571 224.259 229.793 223.887C228.995 223.489 228.421 223.139 228.071 222.837C227.741 222.559 227.477 222.295 227.279 222.043C226.765 221.389 226.632 220.817 226.881 220.326C227.111 219.811 227.568 219.372 228.255 219.01C228.921 218.622 229.662 218.306 230.478 218.061C231.305 217.783 232.043 217.559 232.693 217.388C233.684 217.128 234.86 216.819 236.221 216.461C237.563 216.078 238.807 215.736 239.952 215.436C240.231 215.362 240.54 215.281 240.881 215.192C241.201 215.077 241.547 214.971 241.919 214.873C242.754 214.654 243.651 214.464 244.607 214.304C245.564 214.143 246.513 214.091 247.454 214.148C248.394 214.204 249.273 214.444 250.091 214.866C250.929 215.314 251.604 215.865 252.119 216.519C252.613 217.148 252.953 217.817 253.138 218.527C253.323 219.238 253.377 219.876 253.299 220.443C253.238 220.793 253.131 221.155 252.977 221.529C252.823 221.903 252.613 222.277 252.347 222.651C252.08 223.024 251.757 223.397 251.378 223.77C251.01 224.11 250.504 224.44 249.861 224.761C249.83 224.769 249.828 224.815 249.857 224.898C249.916 224.974 249.977 225.003 250.039 224.987C250.213 224.972 250.506 224.94 250.917 224.893C251.339 224.812 251.725 224.757 252.074 224.726C253.295 224.617 254.489 224.759 255.656 225.15C256.834 225.509 257.799 226.166 258.55 227.122C259.401 228.203 259.826 229.29 259.826 230.383C259.858 231.468 259.589 232.479 259.02 233.418C258.431 234.331 257.687 235.119 256.788 235.78C255.658 236.623 254.134 237.296 252.215 237.801C251.07 238.101 249.809 238.326 248.433 238.476C247.056 238.625 245.689 238.62 244.332 238.46C244.036 238.417 243.76 238.398 243.504 238.405C243.228 238.386 242.966 238.409 242.718 238.474C242.285 238.588 241.9 238.811 241.563 239.142C241.333 239.324 241.079 239.619 240.801 240.025C240.523 240.432 240.144 240.805 239.664 241.144C239.622 241.185 239.539 241.222 239.415 241.255ZM250.314 237.663C251.119 237.451 251.874 237.177 252.58 236.84C253.266 236.477 253.855 236.11 254.346 235.738C255.215 235.085 255.881 234.318 256.346 233.437C256.791 232.531 256.962 231.561 256.858 230.526C256.765 229.457 256.283 228.37 255.413 227.263C254.839 226.533 254.172 226.041 253.411 225.786C252.63 225.505 251.825 225.383 250.994 225.419C250.164 225.455 249.362 225.575 248.588 225.778C248 225.933 247.463 226.104 246.976 226.293C246.489 226.481 246.059 226.67 245.685 226.859C244.917 227.213 244.252 227.554 243.69 227.884C243.527 227.866 243.473 227.774 243.529 227.608C243.565 227.416 243.638 227.2 243.747 226.959C243.887 226.71 243.995 226.514 244.07 226.373C244.093 226.306 244.157 226.198 244.264 226.049C244.382 225.866 244.502 225.759 244.626 225.726C246.143 225.328 247.43 224.899 248.487 224.439C249.575 223.971 250.325 223.333 250.737 222.527C251.129 221.696 251.109 220.578 250.677 219.174C250.442 218.447 250.077 217.769 249.582 217.14C249.008 216.41 248.297 215.838 247.449 215.424C246.58 214.984 245.627 214.84 244.588 214.992C244.445 214.999 244.296 215.023 244.141 215.064C243.986 215.104 243.831 215.145 243.677 215.186C243.088 215.34 242.488 215.574 241.875 215.886C241.293 216.191 240.97 216.564 240.907 217.006C240.786 218.039 240.785 219.178 240.903 220.421C241.002 221.64 241.152 222.875 241.353 224.128C241.534 225.355 241.696 226.511 241.84 227.596C242.018 228.916 242.19 230.251 242.357 231.604C242.524 232.956 242.717 234.317 242.935 235.686C242.986 236.037 243.121 236.35 243.338 236.627C243.734 237.13 244.506 237.519 245.656 237.794C246.439 237.983 247.231 238.063 248.03 238.035C248.841 237.974 249.602 237.85 250.314 237.663Z" fill="black"/>
<path d="M270.834 228.636C270.532 228.743 270.229 228.791 269.925 228.779C269.621 228.767 269.34 228.64 269.083 228.4C268.756 228.094 268.487 227.706 268.278 227.237C268.068 226.768 267.901 226.299 267.775 225.831C267.625 225.34 267.528 224.937 267.482 224.621C267.291 225.807 267.009 226.965 266.635 228.096C266.436 228.65 266.154 229.204 265.788 229.758C265.421 230.311 264.847 230.728 264.063 231.008C263.762 231.115 263.481 231.125 263.22 231.037C262.936 230.927 262.689 230.773 262.478 230.576C262.362 230.467 262.295 230.385 262.278 230.331C261.518 229.424 260.948 228.404 260.57 227.27C260.191 226.137 260.007 225.01 260.016 223.888C260.026 222.767 260.214 221.794 260.581 220.968C260.998 220.034 261.824 219.346 263.06 218.905L268.258 217.049C268.409 216.995 268.531 217.012 268.625 217.099C268.811 217.274 268.769 217.41 268.498 217.507C268.197 217.615 268.047 217.864 268.05 218.256C268.029 218.626 268.036 218.926 268.072 219.154C268.118 219.47 268.219 219.993 268.375 220.723C268.53 221.453 268.729 222.243 268.971 223.093C269.22 223.91 269.482 224.662 269.758 225.349C270.034 226.036 270.312 226.511 270.592 226.773C270.92 227.079 271.294 227.157 271.716 227.006C272.168 226.845 272.517 226.509 272.762 225.999C273.008 225.488 273.183 224.912 273.289 224.27C273.401 223.596 273.464 222.954 273.479 222.344C273.501 221.702 273.522 221.196 273.543 220.826C273.864 220.893 274.048 221.084 274.094 221.4C274.147 221.683 274.168 221.917 274.157 222.102C274.162 222.886 274.1 223.724 273.97 224.616C273.817 225.486 273.496 226.295 273.006 227.044C272.522 227.761 271.798 228.291 270.834 228.636ZM264.725 229.231C265.087 229.102 265.385 228.738 265.621 228.14C265.863 227.51 266.058 226.776 266.204 225.939C266.326 225.079 266.38 224.214 266.366 223.343C266.328 222.451 266.239 221.667 266.101 220.991C265.969 220.283 265.751 219.787 265.447 219.503C265.19 219.262 264.909 219.136 264.605 219.124C264.331 219.101 264.043 219.143 263.741 219.251C263.259 219.423 262.872 219.742 262.58 220.209C262.294 220.643 262.114 221.04 262.04 221.399C261.935 221.768 261.907 222.307 261.955 223.015C262.011 223.69 262.124 224.42 262.296 225.204C262.468 225.988 262.692 226.724 262.968 227.411C263.244 228.098 263.569 228.616 263.943 228.966C264.223 229.229 264.484 229.317 264.725 229.231Z" fill="black"/>
<path d="M277.793 224.648C277.676 224.699 277.574 224.621 277.49 224.413C277.409 224.173 277.288 223.92 277.127 223.654C276.996 223.375 276.839 223.077 276.658 222.758C276.344 222.161 275.985 221.493 275.578 220.753C275.172 220.013 274.777 219.298 274.391 218.61C273.981 217.902 273.641 217.302 273.37 216.808C273.103 216.283 272.938 215.942 272.874 215.787C272.842 216.258 272.823 216.846 272.817 217.55C272.816 218.222 272.831 218.871 272.862 219.498C272.894 220.126 272.929 220.614 272.968 220.963C272.981 221.079 272.958 221.15 272.9 221.176C272.841 221.201 272.748 221.165 272.622 221.067C272.419 220.91 272.303 220.731 272.273 220.53C272.224 219.819 272.158 219.024 272.075 218.145C272.022 217.252 271.958 216.441 271.884 215.71C271.785 214.96 271.707 214.475 271.652 214.254C271.924 214.076 272.319 213.814 272.835 213.47C273.38 213.113 273.681 212.815 273.739 212.576C273.752 212.479 273.802 212.412 273.89 212.374C273.949 212.349 274.029 212.375 274.13 212.454C274.235 212.5 274.294 212.581 274.307 212.697C274.283 212.891 274.347 213.26 274.501 213.804C274.683 214.335 274.898 214.944 275.144 215.631C275.39 216.318 275.626 216.98 275.851 217.615C275.765 217.194 275.705 216.686 275.669 216.092C275.637 215.464 275.675 214.838 275.782 214.212C275.864 213.567 276.034 212.99 276.293 212.482C276.581 211.961 276.99 211.586 277.519 211.358C277.901 211.193 278.3 211.113 278.716 211.116C279.107 211.1 279.553 211.198 280.054 211.409C280.319 211.508 280.566 211.646 280.793 211.822C281.223 212.156 281.509 212.536 281.649 212.964C281.793 213.359 281.908 213.66 281.993 213.868C282.039 213.939 282.012 214.043 281.912 214.177C281.786 214.293 281.687 214.305 281.615 214.214C281.518 214.103 281.407 213.999 281.28 213.901C281.183 213.79 281.059 213.676 280.907 213.558C280.477 213.225 279.982 212.966 279.422 212.78C278.892 212.581 278.377 212.59 277.877 212.805C277.407 213.008 277.087 213.451 276.917 214.135C276.747 214.818 276.653 215.56 276.635 216.361C276.643 217.395 276.789 218.324 277.074 219.147C277.333 219.95 277.668 220.706 278.078 221.414C278.306 221.803 278.535 222.193 278.763 222.583C278.966 222.953 279.138 223.245 279.277 223.459C278.92 223.644 278.614 223.867 278.359 224.13C278.129 224.412 277.94 224.585 277.793 224.648Z" fill="black"/>
</g>
<path d="M173.707 166.773C173.811 166.757 173.916 166.757 174.02 166.773L186.017 168.672C187.235 168.865 187.094 170.66 185.861 170.66H161.866C160.634 170.66 160.492 168.865 161.71 168.672L173.707 166.773Z" fill="black"/>
<path d="M173.864 131.772L142.805 112.443L204.923 112.443L173.864 131.772Z" fill="#FFFBF2"/>
<path d="M173.704 155.565L173.704 169.372" stroke="black" stroke-width="6"/>
<path d="M173.704 128.873L173.704 155.565" stroke="#FFFBF2" stroke-width="6"/>
<line y1="-1" x2="37.4675" y2="-1" transform="matrix(0.754671 -0.656103 0.754671 0.656103 184 121.583)" stroke="#FFFBF2" stroke-width="2"/>
<ellipse cx="4.67533" cy="7.013" rx="4.67533" ry="7.013" transform="matrix(0.754671 0.656103 -0.754671 0.656103 204.149 97.3615)" fill="#F7EDD8"/>
<defs>
<filter id="filter0_d_36_202" x="49.165" y="193.596" width="251.19" height="69.0372" filterUnits="userSpaceOnUse" color-interpolation-filters="sRGB">
<feFlood flood-opacity="0" result="BackgroundImageFix"/>
<feColorMatrix in="SourceAlpha" type="matrix" values="0 0 0 0 0 0 0 0 0 0 0 0 0 0 0 0 0 0 127 0" result="hardAlpha"/>
<feOffset/>
<feGaussianBlur stdDeviation="5"/>
<feComposite in2="hardAlpha" operator="out"/>
<feColorMatrix type="matrix" values="0 0 0 0 1 0 0 0 0 0.984314 0 0 0 0 0.94902 0 0 0 1 0"/>
<feBlend mode="normal" in2="BackgroundImageFix" result="effect1_dropShadow_36_202"/>
<feBlend mode="normal" in="SourceGraphic" in2="effect1_dropShadow_36_202" result="shape"/>
</filter>
</defs>
</svg>
